<svg width="147" height="56" viewBox="0 0 147 56" fill="none" xmlns="http://www.w3.org/2000/svg">
<path d="M6.52504 15.676L0.870039 5.69998H5.65504L8.78704 11.558L9.48304 13.617L10.15 11.558L13.427 5.69998H17.748L11.89 15.473L18.038 26H13.311L9.74404 19.736L8.96104 17.59L8.20704 19.736L4.61104 26H0.290039L6.52504 15.676Z" fill="#295287"/>
<path fill-rule="evenodd" clip-rule="evenodd" d="M23.286 8.03451C21.7973 9.86151 21.053 12.4667 21.053 15.85C21.053 17.4353 21.227 18.8757 21.575 20.171C21.923 21.4663 22.4498 22.578 23.1555 23.506C23.8611 24.434 24.7553 25.1493 25.838 25.652C26.9206 26.1547 28.1966 26.406 29.666 26.406C32.4113 26.406 34.5331 25.4925 36.0315 23.6655C37.5298 21.8385 38.279 19.2333 38.279 15.85C38.279 14.2647 38.105 12.8243 37.757 11.529C37.409 10.2337 36.8773 9.12201 36.162 8.19401C35.4466 7.26601 34.5476 6.55067 33.465 6.04801C32.3823 5.54534 31.116 5.29401 29.666 5.29401C26.9013 5.29401 24.7746 6.20751 23.286 8.03451ZM25.49 18.6775C25.316 17.8172 25.229 16.8747 25.229 15.85C25.229 13.4333 25.6156 11.6595 26.389 10.5285C27.1623 9.39751 28.2546 8.83201 29.666 8.83201C30.478 8.83201 31.1643 9.01084 31.725 9.36851C32.2856 9.72617 32.74 10.224 33.088 10.862C33.436 11.5 33.6921 12.2443 33.8565 13.095C34.0208 13.9457 34.103 14.864 34.103 15.85C34.103 18.3247 33.7163 20.113 32.943 21.215C32.1696 22.317 31.0773 22.868 29.666 22.868C28.8926 22.868 28.2256 22.694 27.665 22.346C27.1043 21.998 26.6451 21.5147 26.2875 20.896C25.9298 20.2773 25.664 19.5378 25.49 18.6775Z" fill="#295287"/>
<path fill-rule="evenodd" clip-rule="evenodd" d="M45.8036 5.5405C44.8273 5.6275 43.9331 5.74834 43.1211 5.903V26H47.0941V19.011C47.1908 19.0303 47.3503 19.0497 47.5726 19.069C47.7949 19.0883 48.0221 19.1028 48.2541 19.1125C48.4861 19.1222 48.7084 19.127 48.9211 19.127H49.3851C50.3904 19.127 51.3619 19.0013 52.2996 18.75C53.2373 18.4987 54.0734 18.0927 54.8081 17.532C55.5428 16.9713 56.1324 16.2512 56.5771 15.3715C57.0218 14.4918 57.2441 13.414 57.2441 12.138C57.2441 10.7267 56.9879 9.58117 56.4756 8.7015C55.9633 7.82184 55.3011 7.1355 54.4891 6.6425C53.6771 6.1495 52.7636 5.82084 51.7486 5.6565C50.7336 5.49217 49.7234 5.41 48.7181 5.41C47.7514 5.41 46.7799 5.4535 45.8036 5.5405ZM47.9351 8.8755C48.2831 8.8465 48.6504 8.832 49.0371 8.832C49.5398 8.832 50.0328 8.88034 50.5161 8.977C50.9994 9.07367 51.4296 9.24767 51.8066 9.499C52.1836 9.75034 52.4881 10.0838 52.7201 10.4995C52.9521 10.9152 53.0681 11.442 53.0681 12.08C53.0681 12.834 52.9473 13.443 52.7056 13.907C52.4639 14.371 52.1401 14.7335 51.7341 14.9945C51.3281 15.2555 50.8689 15.4343 50.3566 15.531C49.8443 15.6277 49.3271 15.676 48.8051 15.676H48.4426C48.2783 15.676 48.1091 15.6712 47.9351 15.6615C47.7611 15.6518 47.5968 15.6373 47.4421 15.618C47.2874 15.5987 47.1714 15.5793 47.0941 15.56V8.977C47.3068 8.93834 47.5871 8.9045 47.9351 8.8755Z" fill="#295287"/>
<path fill-rule="evenodd" clip-rule="evenodd" d="M62.9851 8.03451C61.4964 9.86151 60.7521 12.4667 60.7521 15.85C60.7521 17.4353 60.9261 18.8757 61.2741 20.171C61.6221 21.4663 62.1489 22.578 62.8546 23.506C63.5602 24.434 64.4544 25.1493 65.5371 25.652C66.6197 26.1547 67.8957 26.406 69.3651 26.406C72.1104 26.406 74.2322 25.4925 75.7306 23.6655C77.2289 21.8385 77.9781 19.2333 77.9781 15.85C77.9781 14.2647 77.8041 12.8243 77.4561 11.529C77.1081 10.2337 76.5764 9.12201 75.8611 8.19401C75.1457 7.26601 74.2467 6.55067 73.1641 6.04801C72.0814 5.54534 70.8151 5.29401 69.3651 5.29401C66.6004 5.29401 64.4737 6.20751 62.9851 8.03451ZM65.1891 18.6775C65.0151 17.8172 64.9281 16.8747 64.9281 15.85C64.9281 13.4333 65.3147 11.6595 66.0881 10.5285C66.8614 9.39751 67.9537 8.83201 69.3651 8.83201C70.1771 8.83201 70.8634 9.01084 71.4241 9.36851C71.9847 9.72617 72.4391 10.224 72.7871 10.862C73.1351 11.5 73.3912 12.2443 73.5556 13.095C73.7199 13.9457 73.8021 14.864 73.8021 15.85C73.8021 18.3247 73.4154 20.113 72.6421 21.215C71.8687 22.317 70.7764 22.868 69.3651 22.868C68.5917 22.868 67.9247 22.694 67.3641 22.346C66.8034 21.998 66.3442 21.5147 65.9866 20.896C65.6289 20.2773 65.3631 19.5378 65.1891 18.6775Z" fill="#295287"/>
<path d="M82.8201 26V5.69998H86.7931V22.462H91.5781V5.69998H95.5511V22.462H100.336V5.69998H104.309V26H82.8201Z" fill="#295287"/>
<path d="M121.621 14.748L121.853 12.109H121.708L120.345 14.835L112.776 26H109.789V5.69998H113.762V16.749L113.472 19.475H113.646L115.067 16.662L122.636 5.69998H125.594V26H121.621V14.748Z" fill="#295287"/>
<path fill-rule="evenodd" clip-rule="evenodd" d="M137.962 1.98799C137.585 1.71732 137.357 1.27266 137.28 0.653992L133.684 1.23399C133.761 1.89132 133.96 2.44233 134.279 2.88699C134.598 3.33166 135.004 3.68449 135.497 3.94549C135.99 4.20649 136.565 4.39499 137.222 4.51099C137.879 4.62699 138.604 4.68499 139.397 4.68499C140.982 4.68499 142.225 4.40466 143.124 3.84399C144.023 3.28333 144.578 2.39399 144.791 1.17599L141.572 0.682992C141.437 1.82366 140.721 2.39399 139.426 2.39399C138.827 2.39399 138.339 2.25866 137.962 1.98799ZM143.167 12.109L142.935 14.748V26H146.908V5.69999H143.95L136.381 16.662L134.96 19.475H134.786L135.076 16.749V5.69999H131.103V26H134.09L141.659 14.835L143.022 12.109H143.167Z" fill="#295287"/>
<path d="M17.487 44.473L17.922 40.442H17.748L16.501 43.69L12.18 51.259H10.904L6.35099 43.661L5.07499 40.442H4.92999L5.50999 44.444V55H1.73999V34.7H5.36499L10.788 43.98L11.745 46.3H11.861L12.731 43.922L17.864 34.7H21.46V55H17.487V44.473Z" fill="#295287"/>
<path fill-rule="evenodd" clip-rule="evenodd" d="M30.7101 50.505H36.9451L38.5691 55H42.7451L35.4371 34.555H32.5081L25.2001 55H29.1731L30.7101 50.505ZM36.0751 47.315H31.7251L33.2041 42.82L33.8131 39.601H33.9581L34.5671 42.791L36.0751 47.315Z" fill="#295287"/>
<path d="M59.332 54.159C58.7133 54.6037 57.9255 54.9227 56.9685 55.116C56.0115 55.3093 55.0303 55.406 54.025 55.406C52.807 55.406 51.6518 55.2175 50.5595 54.8405C49.4672 54.4635 48.5053 53.8545 47.674 53.0135C46.8427 52.1725 46.1805 51.0802 45.6875 49.7365C45.1945 48.3928 44.948 46.764 44.948 44.85C44.948 42.8587 45.2235 41.1912 45.7745 39.8475C46.3255 38.5038 47.0408 37.4212 47.9205 36.5995C48.8002 35.7778 49.7813 35.1882 50.864 34.8305C51.9467 34.4728 53.0293 34.294 54.112 34.294C55.272 34.294 56.2532 34.3713 57.0555 34.526C57.8578 34.6807 58.52 34.8643 59.042 35.077L58.259 38.441C57.8143 38.2283 57.2875 38.0737 56.6785 37.977C56.0695 37.8803 55.33 37.832 54.46 37.832C52.8553 37.832 51.5648 38.4023 50.5885 39.543C49.6122 40.6837 49.124 42.4527 49.124 44.85C49.124 45.894 49.24 46.8462 49.472 47.7065C49.704 48.5668 50.0568 49.3015 50.5305 49.9105C51.0042 50.5195 51.5938 50.9932 52.2995 51.3315C53.0052 51.6698 53.822 51.839 54.75 51.839C55.62 51.839 56.3547 51.752 56.954 51.578C57.5533 51.404 58.0753 51.1817 58.52 50.911L59.332 54.159Z" fill="#295287"/>
<path d="M76.9341 38.238H71.0181V55H67.0451V38.238H61.1001V34.7H76.9341V38.238Z" fill="#295287"/>
<path d="M80.993 34.7H93.028V38.238H84.966V42.965H92.303V46.503H84.966V51.462H93.173V55H80.993V34.7Z" fill="#295287"/>
<path fill-rule="evenodd" clip-rule="evenodd" d="M100.814 34.5405C99.8373 34.6275 98.9431 34.7483 98.1311 34.903V55H102.104V48.011C102.201 48.0303 102.36 48.0497 102.583 48.069C102.805 48.0883 103.032 48.1028 103.264 48.1125C103.496 48.1222 103.718 48.127 103.931 48.127H104.395C105.4 48.127 106.372 48.0013 107.31 47.75C108.247 47.4987 109.083 47.0927 109.818 46.532C110.553 45.9713 111.142 45.2512 111.587 44.3715C112.032 43.4918 112.254 42.414 112.254 41.138C112.254 39.7267 111.998 38.5812 111.486 37.7015C110.973 36.8218 110.311 36.1355 109.499 35.6425C108.687 35.1495 107.774 34.8208 106.759 34.6565C105.744 34.4922 104.733 34.41 103.728 34.41C102.761 34.41 101.79 34.4535 100.814 34.5405ZM102.945 37.8755C103.293 37.8465 103.66 37.832 104.047 37.832C104.55 37.832 105.043 37.8803 105.526 37.977C106.009 38.0737 106.44 38.2477 106.817 38.499C107.194 38.7503 107.498 39.0838 107.73 39.4995C107.962 39.9152 108.078 40.442 108.078 41.08C108.078 41.834 107.957 42.443 107.716 42.907C107.474 43.371 107.15 43.7335 106.744 43.9945C106.338 44.2555 105.879 44.4343 105.367 44.531C104.854 44.6277 104.337 44.676 103.815 44.676H103.453C103.288 44.676 103.119 44.6712 102.945 44.6615C102.771 44.6518 102.607 44.6373 102.452 44.618C102.297 44.5987 102.181 44.5793 102.104 44.56V37.977C102.317 37.9383 102.597 37.9045 102.945 37.8755Z" fill="#295287"/>
</svg>
