<svg width="16" height="25" viewBox="0 0 16 25" fill="none" xmlns="http://www.w3.org/2000/svg">
<path d="M13.753 1.95428L14.6877 1.09045L14.6877 1.09045L13.753 1.95428ZM13.6821 3.7528L14.546 4.68748L14.546 4.68748L13.6821 3.7528ZM11.9545 1.88343L12.8183 2.81812L12.8183 2.81812L11.9545 1.88343ZM1.78307 11.2838L2.63756 12.2272L2.6469 12.2185L1.78307 11.2838ZM1.73651 11.3282L2.63585 12.2288L2.63707 12.2275L1.73651 11.3282ZM1.36374 12.2282L0.0910141 12.2279L0.0910141 12.2279L1.36374 12.2282ZM1.48838 12.7782L2.63633 12.2286L2.63599 12.2279L1.48838 12.7782ZM1.73651 13.1281L2.63707 12.2288L2.63585 12.2276L1.73651 13.1281ZM1.78307 13.1725L2.64694 12.2378L2.63751 12.2292L1.78307 13.1725ZM11.9545 22.5729L11.0906 23.5076L11.0906 23.5076L11.9545 22.5729ZM13.753 22.502L12.8183 21.6382L12.8183 21.6382L13.753 22.502ZM13.6821 20.7035L12.8183 21.6382L12.8183 21.6382L13.6821 20.7035ZM4.51165 12.2282L3.64781 11.2935C3.38714 11.5344 3.23892 11.8732 3.23892 12.2282C3.23892 12.5831 3.38714 12.9219 3.64781 13.1628L4.51165 12.2282ZM12.8183 2.81811L12.8183 2.81812L14.546 4.68748C15.5784 3.73331 15.6418 2.12287 14.6877 1.09045L12.8183 2.81811ZM12.8183 2.81812L12.8183 2.81812L14.6877 1.09045C13.7335 0.0580307 12.123 -0.0054094 11.0906 0.948754L12.8183 2.81812ZM2.6469 12.2185L12.8183 2.81812L11.0906 0.948754L0.919239 10.3492L2.6469 12.2185ZM2.63707 12.2275L2.63752 12.2271L0.928621 10.3406C0.897117 10.3691 0.866211 10.3985 0.835943 10.4289L2.63707 12.2275ZM2.63647 12.2285L2.63585 12.2288L0.837169 10.4276C0.341403 10.9227 0.0911724 11.5767 0.0910141 12.2279L2.63647 12.2285ZM2.63599 12.2279L2.63647 12.2285L0.0910141 12.2279C0.0909231 12.6024 0.173304 12.9793 0.340781 13.3285L2.63599 12.2279ZM2.63585 12.2276C2.63502 12.2267 2.63568 12.2273 2.63633 12.2286L0.340439 13.3278C0.462513 13.5828 0.628744 13.8206 0.837169 14.0287L2.63585 12.2276ZM2.63751 12.2292L2.63707 12.2288L0.83595 14.0275C0.866192 14.0578 0.897095 14.0872 0.928625 14.1158L2.63751 12.2292ZM12.8183 21.6382L2.6469 12.2378L0.919234 14.1072L11.0906 23.5076L12.8183 21.6382ZM12.8183 21.6382L12.8183 21.6382L11.0906 23.5076C12.123 24.4617 13.7335 24.3983 14.6877 23.3659L12.8183 21.6382ZM12.8183 21.6382L12.8183 21.6382L14.6877 23.3659C15.6418 22.3335 15.5784 20.723 14.546 19.7688L12.8183 21.6382ZM3.64781 13.1628L12.8183 21.6382L14.546 19.7688L5.37548 11.2935L3.64781 13.1628ZM12.8183 2.81812L3.64781 11.2935L5.37548 13.1628L14.546 4.68748L12.8183 2.81812Z" fill="black"/>
</svg>
