<svg width="16" height="25" viewBox="0 0 16 25" fill="none" xmlns="http://www.w3.org/2000/svg">
<path d="M2.24703 1.95428L1.31235 1.09045L1.31235 1.09045L2.24703 1.95428ZM2.31787 3.7528L1.45404 4.68748L1.45404 4.68748L2.31787 3.7528ZM4.04554 1.88343L3.18171 2.81812L3.18171 2.81812L4.04554 1.88343ZM14.2169 11.2838L13.3624 12.2272L13.3531 12.2185L14.2169 11.2838ZM14.2635 11.3282L13.3642 12.2288L13.3629 12.2275L14.2635 11.3282ZM14.6363 12.2282L15.909 12.2279L15.909 12.2279L14.6363 12.2282ZM14.5116 12.7782L13.3637 12.2286L13.364 12.2279L14.5116 12.7782ZM14.2635 13.1281L13.3629 12.2288L13.3642 12.2276L14.2635 13.1281ZM14.2169 13.1725L13.3531 12.2378L13.3625 12.2292L14.2169 13.1725ZM4.04554 22.5729L4.90937 23.5076L4.90937 23.5076L4.04554 22.5729ZM2.24703 22.502L3.18171 21.6382L3.18171 21.6382L2.24703 22.502ZM2.31787 20.7035L3.18171 21.6382L3.18171 21.6382L2.31787 20.7035ZM11.4884 12.2282L12.3522 11.2935C12.6129 11.5344 12.7611 11.8732 12.7611 12.2282C12.7611 12.5831 12.6129 12.9219 12.3522 13.1628L11.4884 12.2282ZM3.18171 2.81811L3.18171 2.81812L1.45404 4.68748C0.421624 3.73331 0.358182 2.12287 1.31235 1.09045L3.18171 2.81811ZM3.18171 2.81812L3.18171 2.81812L1.31235 1.09045C2.26651 0.0580307 3.87695 -0.0054094 4.90937 0.948754L3.18171 2.81812ZM13.3531 12.2185L3.18171 2.81812L4.90937 0.948754L15.0808 10.3492L13.3531 12.2185ZM13.3629 12.2275L13.3625 12.2271L15.0714 10.3406C15.1029 10.3691 15.1338 10.3985 15.1641 10.4289L13.3629 12.2275ZM13.3635 12.2285L13.3642 12.2288L15.1628 10.4276C15.6586 10.9227 15.9088 11.5767 15.909 12.2279L13.3635 12.2285ZM13.364 12.2279L13.3635 12.2285L15.909 12.2279C15.9091 12.6024 15.8267 12.9793 15.6592 13.3285L13.364 12.2279ZM13.3642 12.2276C13.365 12.2267 13.3643 12.2273 13.3637 12.2286L15.6596 13.3278C15.5375 13.5828 15.3713 13.8206 15.1628 14.0287L13.3642 12.2276ZM13.3625 12.2292L13.3629 12.2288L15.164 14.0275C15.1338 14.0578 15.1029 14.0872 15.0714 14.1158L13.3625 12.2292ZM3.18171 21.6382L13.3531 12.2378L15.0808 14.1072L4.90937 23.5076L3.18171 21.6382ZM3.18171 21.6382L3.18171 21.6382L4.90937 23.5076C3.87695 24.4617 2.26651 24.3983 1.31235 23.3659L3.18171 21.6382ZM3.18171 21.6382L3.18171 21.6382L1.31235 23.3659C0.358182 22.3335 0.421624 20.723 1.45404 19.7688L3.18171 21.6382ZM12.3522 13.1628L3.18171 21.6382L1.45404 19.7688L10.6245 11.2935L12.3522 13.1628ZM3.18171 2.81812L12.3522 11.2935L10.6245 13.1628L1.45404 4.68748L3.18171 2.81812Z" fill="black"/>
</svg>
